<svg xmlns="http://www.w3.org/2000/svg" width="192" height="192" viewBox="0 0 1024 1024"><rect width="1024.5" height="1024.5" fill="#478D3F" stroke="#000" ry="127"/><path fill="#fff" d="M785.9 182.2c4.4-10.6 6.2-19.4-6-37-70.7-102.3-213.2 32.4-323.4 79L223.2 548.4c4.4 8.4 10.4 19.7 17 27.7L548.3 444z"/><path fill="#7a4308" d="M448.4 632.3c44.2-6 79-16.3 118-35 87.9-42.1 165.4-124.1 204-216a384 384 0 0 0 32.9-141c1.1-29-13.3-86.7-19.3-87.6-1.3-.2-10.8 7-18.9 13-7.7 5.6-16.8 10.6-24.6 15.9-12 8-19.2 15-23.7 15-9.6 0-15.6-8.4-12.1-15.8 1.4-3 7.4-9.2 30-24.3l34.8-23.4c1.4-1-2-3.4-6.2-7.9-23.5-25-42.6-30.3-89.2-38-17.8-3-84.3-3.4-103.7-.7a394.5 394.5 0 0 0-171 65.7 383.3 383.3 0 0 0-78.5 68.7 420.8 420.8 0 0 0-84.7 135 377.3 377.3 0 0 0-23 92.6 309 309 0 0 0 1.7 76c2.9 13.5 7.5 25.7 9.9 25.7.9 0 4.2-2.1 7.2-4.8a1879 1879 0 0 1 29.2-23.6c21.6-17.3 24-18.8 28.6-18.8 6.2 0 10.8 4.3 10.8 10.1 0 4.9-2.3 7.3-30.4 31.2-27 23-30.5 26.5-30.5 30.4 0 4 15.9 20.1 28.4 29 22.3 15.7 57.4 26.3 101.1 30.5 16.7 1.7 60.5.6 79.2-2zm-39.3-164.6c-3.4-1.8-6.7-5.5-12.2-13.8-4.1-6.2-7.7-11.3-8-11.3-.3 0-4.8 3.8-10 8.5-11.2 10-16.4 12.1-23.5 9.6-3.9-1.4-5.4-2.8-7.1-6.8-2-4.4-2-5.7-.8-10.5 1.5-5.4 4.5-9.3 16.9-21.5l6.9-6.7-9.6-14.7a131 131 0 0 1-10.2-17.8 16 16 0 0 1 1.5-8c4.1-9.4 14.3-13.7 20.9-8.9 2.3 1.7 9.5 11.4 19 25.4 1 1.7 2.4.9 8.7-5.3 4.2-4 10.8-10 14.8-13.5 7.3-6.4 8.3-7.8 6.3-9.2-2.5-1.8-17.8-27-18.4-30.5-1.5-8.6 6-18.8 14-18.8 5.7 0 9.4 3.3 18.8 17.4l9.3 13.8 15-12.5c8.4-6.8 15.1-12.6 15.1-12.9 0-.2-2.8-4.7-6.4-10-9.6-14.5-12.7-21.4-11.8-26.7 1-6.1 7.7-12.4 13-12.4 7.9 0 9.5 1.7 29.4 31.3.3.4 28.6-19.5 30.8-21.7.3-.2-3.2-6.6-7.8-14-10.3-16.7-11.3-19.5-9.6-25.3 2.7-9.2 12.3-13.7 20.3-9.6a85 85 0 0 1 12.5 16.5 65.1 65.1 0 0 0 11 14.6c3-.8 30.4-18.8 30.8-20.2a43 43 0 0 0-5.8-11.8c-11.5-18.8-12.7-24.2-6.9-30.7a15 15 0 0 1 17.2-3.8c4 1.5 6.2 4 13.5 15.2a94.5 94.5 0 0 0 9.8 13.5c.5 0 4.7-1.8 9.3-4a59.7 59.7 0 0 1 12.7-4.8c8.5-1.3 16.7 4.2 18 12.2 1 5.9-2.9 11.5-13.1 19l-9.6 7.2a47 47 0 0 0 5.5 9.4c11 16.8 12.8 23.6 8.4 31.7a13.7 13.7 0 0 1-20.6 4.6c-1.4-1-6.6-8-11.6-15.6-8.6-12.8-9.3-13.5-11.7-12-1.4.8-8.4 5.7-15.6 10.7-10.3 7.3-12.7 9.6-11.9 11.2l8.8 14.4c7 11.3 7.7 13 7.1 17.6a17.2 17.2 0 0 1-11.4 14c-7.6 2.3-10.6-.2-22.8-19a427 427 0 0 0-7.6-11.7c-.9-1-31.6 19.9-31.6 21.5 0 .4 4.2 6.9 9.3 14.4 7.6 11.1 9.4 14.7 9.4 18.4 0 10-8.6 18.2-17.2 16.4-4.9-1-9.8-6.4-18.6-20.5-3.7-6-7-11.2-7-11.4-.2-.3-7 5-15.1 11.5l-14.8 12 2.6 4.2 8.8 13.8c7.9 12 8.7 14.4 7.2 20.7-2.5 10-11.7 15.6-19 11.7a154 154 0 0 1-21.9-28.2c-.5-1-6 3-15.6 11.9a335.2 335.2 0 0 0-14.9 13.8c0 .2 3.4 5.6 7.5 12 8.4 13 11.3 18.8 11.3 22.3 0 6.2-9 16.2-14.6 16-1.3 0-4.5-1-7-2.3z"/><path fill="#fff" d="M626.2 926.7c19.3-3.2 35-11.2 41.9-21.1 6.7-9.9 7.1-12.6 7.2-53.9v-38.2l-23.8-.2-23.7-.2v34c0 36-.9 43-5.7 47.7-5.5 5.3-9 6.3-22.2 6.3-10.7 0-12.6-.3-16.8-2.2-6.2-2.8-9.6-7-11.3-13.8a340 340 0 0 1-1.4-38.8v-33.2l-23.8.2-23.8.2v38.2c.1 42.4.5 45 8.8 55.1 8.8 10.9 29.6 19 55 21.3 10 1 30 .2 39.6-1.4zm-184.3-.3c22.7-3.8 41.3-13.2 50.3-25.2 6.8-9 9.2-17.6 9.3-32.3 0-19.3-6.1-30.5-23-41.7-16-10.6-35.2-15.3-63.2-15.3-18.9 0-31.4 2-45.6 6.8-29 10-43.6 30-41.3 56.2a45.1 45.1 0 0 0 20.4 36.3c16.5 11.8 35.6 16.6 66.6 16.8 12.4 0 18.9-.3 26.5-1.6zm-34.4-25c-19.8-2.2-29-11.7-29.1-30.3-.2-18.5 8.5-28.8 26.6-31.3 20.1-2.9 36.2 2.4 42.7 13.9a39 39 0 0 1-1.3 35.9c-6.2 9.4-20.5 13.7-38.9 11.8zm-138.9-19v-42.7h47.6v-26.6H171.5v26.6h48.2v85.8l24.5-.2 24.4-.2zm483 24.2v-18.8h9.6c6.2 0 10 .3 10.9 1 .6.6 6.7 9.1 13.4 18.9l12.3 17.8h25.9a244 244 0 0 0 25.4-.6c-9.1-12.2-22.9-31-25.5-34.9-3.3-4.9-3.3-5-.9-5.9 1.4-.5 5.5-2.8 9-5.3 11.5-7.6 15.7-16 14.7-29.1-1.6-21-18.7-33-50.4-35.8-5.4-.5-28.6-.7-51.6-.6l-41.7.2V869c0 30.4.1 55.6.4 56 .2.3 11.2.6 24.4.6h24zm0-54.8V838h14.7c17.5 0 24.7 1.7 28.6 6.9 3.1 4 3 10.8-.2 14.3-4.3 4.6-9.2 5.7-27.1 6l-16 .4z"/><path fill="#333" d="M755.2 792.6c15.6-1.2 24-2.5 36.3-5.5 32.9-8.1 51-23.3 55-45.9 4-23-9.8-44-35.8-54.6-22-9-51.8-13.3-87.3-12.4-51.2 1.4-87.6 14-101.4 35a46.5 46.5 0 0 0-1.2 47.4c10 17.4 33.2 28.8 69 34 21 3 43.2 3.7 65.4 2zm-42.5-28c-19.5-3.5-28.7-12-30-27.8-1-13.8 3-22.4 13.3-28.3 9.1-5.1 16.1-6.4 35.1-6.4 14.5 0 16.2.1 23 1.8 18 4.5 25 13 25 29.9 0 17-6.9 25.2-24.6 30a71.1 71.1 0 0 1-20.8 1.9 102 102 0 0 1-21-1zm-251.3 7v-19h28l4 4.5c3 3.2 28.7 30.6 31.1 33 .5.5 71.4.1 71.2-.3-.1-.3-9-9.4-19.5-20.3a15636 15636 0 0 1-19.6-20.3 63.3 63.3 0 0 0 26.7-13.5 24.3 24.3 0 0 0 8-19c0-20.6-21.6-34.9-57.8-38.4-7.9-.8-23.1-1-74.2-1h-64.2v56.4c0 31 .2 56.5.5 56.6.3.2 15.3.3 33.2.3h32.6zm.6-42c-.3-.2-.6-6.5-.6-14v-13.8h19.8c22.9 0 27.9.5 34.8 3.7 5.9 2.7 8.1 5.7 8 10.6 0 4.5-2 7.5-6.4 9.6-6.8 3.4-12.2 4-34.5 4.1-11.3 0-20.8 0-21.1-.2zm-225.5 43.6V756l33.5-.3c36.5-.4 41.8-.8 57-4.6 22.8-5.7 36.3-17 37.9-31.6 1.8-17.1-12.7-31.3-39-37.9-16.8-4.2-20.1-4.3-91-4.4h-63.4v113h65zm0-56.6v-14.2h20c21 0 26 .5 33 3.1 6.4 2.5 9.6 6.2 9.6 11.3 0 6.2-3.9 9.7-13 12.2-6.8 1.8-7.5 1.8-28.3 1.8h-21.3z"/></svg>